# xmcd
#
# Track frame offsets:
#	150
#	8647
#	18063
#	27347
#	38638
#	48379
#	58427
#	70834
#	83915
#	96066
#	107238
#	119898
#
# Disc length: 1800 seconds
#
# Revision: 1
# Processed by: cddbd v1.5.2PL0 Copyright (c) Steve Scherf et al.
# Submitted via: audiograbber 1.83.01
#
DISCID=9b07060c
DTITLE=Liz Anderson - Like A Merry-Go-Round
DYEAR=1968
DGENRE=Country
TTITLE0=Me, Me, Me, Me, Me
TTITLE1=Did You Have To Bring That Up (While I Was Eating)
TTITLE2=Like A Merry-Go-Round
TTITLE3=Thanks, But No Thanks
TTITLE4=No Another Time
TTITLE5=Tonight I'll Throw A Party
TTITLE6=Love Is Ending
TTITLE7=Blue Are The Violets
TTITLE8=Take Me To Your World
TTITLE9=Your Hold On Me Is Gone
TTITLE10=Cry, Cry Again
TTITLE11=Little Things
EXTD=
EXTT0=
EXTT1=
EXTT2=
EXTT3=
EXTT4=
EXTT5=
EXTT6=
EXTT7=
EXTT8=
EXTT9=
EXTT10=
EXTT11=
PLAYORDER=
